<?xml version="1.0" standalone="no"?>
<!DOCTYPE svg PUBLIC "-//W3C//DTD SVG 20010904//EN"
 "http://www.w3.org/TR/2001/REC-SVG-20010904/DTD/svg10.dtd">
<svg version="1.0" xmlns="http://www.w3.org/2000/svg"
 width="1600.000000pt" height="1600.000000pt" viewBox="0 0 1600.000000 1600.000000"
 preserveAspectRatio="xMidYMid meet">
<metadata>
Created by potrace 1.14, written by Peter Selinger 2001-2017
</metadata>
<g transform="translate(0.000000,1600.000000) scale(0.100000,-0.100000)"
fill="#000000" stroke="none">
<path d="M1968 12535 c-2 -2 -37 -6 -78 -9 -83 -6 -214 -29 -300 -53 -30 -8
-59 -15 -65 -16 -5 -2 -14 -5 -20 -8 -5 -4 -41 -16 -79 -28 -74 -24 -277 -118
-287 -133 -3 -6 -9 -8 -12 -6 -4 1 -15 -4 -25 -13 -10 -8 -26 -18 -36 -22 -17
-7 -141 -92 -162 -112 -6 -5 -23 -19 -38 -30 -55 -39 -204 -192 -264 -270 -35
-44 -67 -85 -72 -92 -6 -7 -15 -24 -22 -38 -6 -14 -15 -25 -20 -25 -4 0 -8 -5
-8 -11 0 -7 -10 -28 -22 -48 -13 -20 -23 -38 -24 -41 0 -3 -16 -36 -34 -75
-18 -38 -33 -73 -32 -77 1 -4 -6 -24 -15 -45 -9 -21 -16 -41 -15 -45 1 -4 -3
-19 -8 -33 -5 -14 -12 -36 -14 -48 -3 -12 -10 -47 -16 -77 -6 -30 -13 -98 -16
-150 -3 -52 -6 -106 -8 -120 -1 -14 1 -33 6 -42 4 -9 4 -19 0 -22 -5 -3 -7
-24 -6 -48 5 -81 14 -173 19 -198 24 -125 44 -207 63 -260 3 -8 6 -17 7 -20
15 -61 139 -322 156 -328 5 -2 7 -8 3 -13 -3 -5 0 -9 5 -9 6 0 11 -6 11 -12 0
-11 65 -106 99 -145 6 -7 11 -14 11 -17 0 -5 56 -68 127 -144 29 -31 53 -60
53 -66 0 -5 3 -7 6 -3 5 5 29 -14 98 -78 6 -6 29 -24 51 -40 22 -17 42 -32 45
-35 13 -13 121 -80 129 -80 5 0 11 -4 13 -9 4 -11 173 -97 228 -116 3 -1 19
-7 35 -14 37 -14 59 -22 62 -22 2 0 22 -7 45 -15 44 -16 69 -23 103 -29 20 -4
40 -8 100 -20 38 -8 76 -13 140 -19 28 -3 68 -7 90 -10 124 -17 625 -29 625
-16 0 3 14 5 30 5 17 0 30 -4 30 -8 0 -5 5 -5 12 -1 7 5 44 9 83 10 38 1 142
6 230 9 329 15 892 9 1052 -10 24 -3 64 -7 91 -10 26 -4 58 -8 72 -10 56 -9
157 -26 180 -31 14 -3 34 -6 45 -7 11 -1 22 -5 25 -9 3 -3 19 -8 35 -11 17 -3
57 -13 90 -22 33 -10 66 -17 73 -18 6 0 12 -4 12 -9 0 -4 3 -7 8 -7 4 1 9 0
12 -1 3 -1 12 -3 20 -5 26 -5 175 -66 188 -77 6 -6 12 -8 12 -4 0 7 168 -81
199 -105 13 -11 28 -19 33 -19 5 0 16 -6 23 -12 30 -27 44 -38 50 -38 7 0 1 5
120 -93 50 -41 119 -105 155 -142 36 -38 75 -79 88 -92 12 -13 22 -28 22 -33
0 -5 6 -13 13 -17 36 -23 223 -313 208 -322 -4 -3 -12 -17 -16 -31 -4 -14 -11
-27 -16 -30 -4 -3 -9 -12 -11 -20 -2 -8 -11 -23 -20 -33 -9 -11 -24 -34 -32
-51 -12 -24 -92 -137 -143 -201 -84 -106 -211 -234 -318 -320 -108 -87 -88
-73 -263 -180 -28 -17 -87 -49 -92 -50 -3 -1 -28 -13 -57 -28 -29 -15 -59 -27
-68 -27 -8 0 -15 -5 -15 -12 0 -6 -3 -9 -6 -5 -4 3 -18 0 -33 -7 -14 -8 -64
-26 -111 -41 -47 -15 -92 -29 -100 -33 -22 -8 -21 -8 -65 -17 -55 -12 -54 -12
-62 -15 -5 -2 -12 -4 -18 -5 -5 -2 -12 -4 -15 -5 -10 -4 -76 -16 -143 -26 -48
-7 -72 -12 -72 -14 0 -1 -18 -3 -40 -5 -22 -2 -65 -7 -95 -11 -100 -12 -114
-13 -245 -20 -170 -9 -426 -8 -645 2 -317 15 -668 11 -845 -10 -62 -7 -139
-18 -159 -22 -12 -2 -46 -8 -76 -14 -83 -15 -100 -19 -118 -24 -9 -3 -28 -7
-42 -10 -36 -7 -143 -36 -160 -43 -8 -3 -17 -7 -20 -8 -63 -19 -114 -37 -152
-53 -25 -11 -49 -18 -52 -15 -3 4 -6 1 -6 -5 0 -7 -3 -11 -7 -10 -25 6 -246
-109 -366 -191 -38 -25 -76 -50 -85 -56 -10 -5 -19 -13 -22 -16 -3 -3 -32 -29
-65 -56 -76 -64 -185 -175 -227 -233 -18 -25 -39 -50 -48 -57 -8 -7 -11 -13
-7 -13 4 0 -1 -9 -11 -20 -10 -11 -25 -33 -33 -48 -8 -15 -17 -29 -20 -32 -10
-9 -33 -55 -31 -62 1 -5 -2 -8 -7 -8 -6 0 -60 -106 -66 -130 0 -3 -6 -15 -13
-27 -7 -13 -10 -23 -6 -23 3 0 2 -6 -3 -12 -29 -37 -82 -247 -100 -398 -7 -64
-10 -345 -3 -355 4 -5 7 -29 6 -53 0 -23 2 -42 5 -42 3 0 5 -11 4 -25 -2 -14
1 -25 6 -25 6 0 8 -3 5 -8 -2 -4 0 -27 5 -52 6 -25 11 -52 13 -60 13 -66 82
-268 97 -284 5 -6 9 -18 9 -28 0 -10 5 -18 10 -18 6 0 9 -3 8 -7 -1 -5 10 -33
26 -63 119 -233 329 -465 536 -591 30 -18 58 -37 61 -42 3 -5 9 -8 13 -7 4 1
35 -12 69 -28 34 -17 94 -40 132 -53 39 -12 79 -26 90 -30 43 -16 154 -48 225
-64 104 -23 106 -24 164 -30 28 -2 64 -7 79 -10 68 -13 461 -5 487 10 3 1 31
6 62 9 31 4 101 18 155 32 54 14 105 27 113 29 8 2 42 13 75 25 33 11 61 21
62 21 8 0 93 38 178 79 98 47 252 145 336 212 59 47 198 186 239 238 19 25 38
47 42 48 5 2 8 10 8 18 0 8 4 14 8 14 5 0 14 10 21 23 6 12 25 45 42 72 54 89
126 251 130 290 0 6 4 15 9 20 11 13 58 227 63 286 3 26 8 52 11 58 4 6 2 11
-4 11 -8 0 -8 6 0 20 8 15 8 20 -2 20 -8 0 -9 3 -3 8 15 10 10 153 -9 287 -11
77 -50 226 -82 308 -37 96 -48 124 -60 154 -8 17 -14 34 -14 37 0 3 -12 31
-26 63 -15 31 -27 62 -29 67 -1 6 -7 24 -14 40 -6 16 -13 39 -14 50 -1 12 -6
24 -10 27 -4 3 -9 39 -11 80 -9 190 83 266 394 323 14 3 34 7 45 9 23 5 89 17
125 23 14 3 48 9 75 14 28 5 65 12 84 15 19 3 37 7 40 9 3 2 26 7 51 10 48 7
81 12 120 22 14 3 36 7 50 9 14 2 25 4 25 5 0 1 15 3 33 5 19 2 41 7 50 11 10
4 26 8 37 9 25 2 63 11 180 39 33 8 71 17 85 20 14 2 88 21 165 41 77 20 149
39 161 41 12 2 40 10 63 19 23 8 42 14 44 14 1 0 9 2 17 4 43 14 196 60 205
62 33 7 71 19 80 24 6 3 12 6 15 6 6 1 139 44 160 52 8 4 17 7 20 8 3 1 13 5
22 9 9 4 22 9 30 10 7 2 21 6 31 9 21 9 40 14 50 16 4 0 20 7 36 15 16 9 31
12 35 9 3 -4 6 0 6 7 0 7 3 11 6 7 4 -3 19 0 34 8 15 8 30 11 34 8 3 -4 6 -1
6 5 0 7 3 11 8 10 7 -2 118 39 192 70 19 9 40 16 45 18 6 1 30 11 55 22 25 12
85 37 134 57 49 20 97 41 108 46 10 5 27 14 38 19 11 6 27 10 35 10 8 0 15 5
15 10 0 14 44 12 87 -4 21 -8 85 -31 143 -51 58 -20 112 -39 120 -43 8 -3 17
-6 20 -7 3 -1 12 -4 20 -8 8 -3 83 -28 165 -56 83 -28 159 -55 170 -60 11 -5
76 -28 145 -51 69 -23 132 -44 140 -47 8 -4 20 -7 25 -9 6 -1 30 -10 55 -19
25 -9 135 -48 245 -87 110 -38 238 -83 285 -100 47 -16 93 -31 103 -33 9 -2
21 -6 26 -9 10 -7 379 -136 396 -140 6 -1 15 -4 20 -7 6 -4 42 -16 80 -28 39
-13 79 -26 90 -31 26 -11 197 -71 210 -74 6 -1 15 -4 20 -8 6 -3 26 -10 45
-16 36 -10 171 -57 320 -112 47 -17 96 -33 109 -36 14 -3 29 -8 35 -12 6 -3
16 -7 21 -8 6 -1 55 -19 110 -39 55 -20 109 -38 120 -40 11 -3 29 -9 40 -14
11 -5 49 -19 85 -31 36 -12 74 -26 85 -30 77 -30 225 -80 238 -80 9 0 19 -5
22 -10 4 -6 11 -8 16 -5 5 4 9 2 9 -3 0 -5 6 -9 13 -10 15 -1 38 -7 57 -15 21
-9 349 -124 435 -153 39 -12 97 -33 130 -45 149 -53 341 -121 355 -124 8 -2
16 -4 18 -5 1 -2 5 -3 10 -5 4 -1 14 -5 22 -8 8 -4 60 -22 115 -40 56 -18 105
-36 110 -39 14 -8 100 -31 101 -27 1 2 11 -5 23 -15 12 -11 21 -16 21 -13 0 3
64 -17 143 -45 78 -28 148 -50 155 -51 6 0 12 -4 12 -8 0 -4 17 -10 37 -14 21
-4 42 -10 48 -13 5 -4 12 -7 15 -8 3 0 12 -3 20 -7 30 -11 85 -27 94 -26 5 0
12 -3 15 -8 5 -6 197 -76 220 -79 3 0 13 -4 21 -7 48 -21 390 -136 390 -131 0
4 6 1 14 -5 8 -6 18 -11 22 -9 5 1 34 -4 64 -12 30 -8 58 -15 63 -16 4 -1 8
-2 10 -3 1 -1 20 -5 42 -7 52 -7 80 -12 80 -14 0 -2 27 -6 100 -15 33 -4 63
-9 66 -11 11 -7 220 -17 359 -17 123 0 246 7 310 18 56 9 107 17 135 20 17 3
62 13 102 24 40 10 74 16 77 13 4 -3 6 -1 6 4 0 5 11 11 24 12 13 1 37 7 52
13 16 7 34 13 39 15 118 30 459 210 527 277 7 8 24 20 37 27 38 20 291 255
291 270 0 6 -150 65 -310 122 -30 11 -62 22 -70 25 -8 4 -17 7 -20 8 -5 2 -27
10 -80 32 -19 8 -42 16 -50 18 -8 2 -58 20 -110 40 -52 20 -129 50 -170 65
-41 16 -120 45 -175 66 -55 21 -104 39 -110 40 -5 2 -106 39 -222 83 -117 45
-220 81 -228 81 -8 0 -15 4 -15 8 0 4 -21 14 -47 21 -27 8 -52 17 -58 21 -5 4
-31 13 -57 21 -27 7 -48 17 -48 21 0 4 -3 7 -7 6 -8 -3 -107 31 -168 57 -16 7
-64 25 -105 40 -41 15 -113 42 -160 60 -47 18 -110 41 -140 51 -30 11 -57 21
-60 24 -3 3 -11 6 -18 8 -8 1 -69 23 -135 48 -163 61 -183 69 -244 93 -28 12
-59 21 -67 21 -9 0 -16 5 -16 10 0 6 -3 9 -7 8 -7 -2 -56 14 -123 39 -8 4 -17
7 -20 8 -3 1 -12 5 -20 8 -8 3 -89 34 -180 67 -166 62 -268 100 -305 115 -11
5 -22 9 -25 10 -21 5 -91 30 -115 41 -56 24 -330 126 -342 127 -7 0 -13 3 -13
7 0 4 -6 7 -12 7 -12 1 -239 83 -283 103 -11 5 -58 23 -105 40 -91 34 -167 62
-215 81 -16 7 -34 13 -40 15 -5 1 -53 19 -105 39 -52 20 -99 38 -105 39 -15 4
-47 17 -70 26 -20 9 -47 19 -320 120 -77 28 -149 55 -160 60 -42 17 -90 35
-97 35 -3 0 -10 3 -14 8 -4 4 -16 7 -26 7 -10 0 -18 4 -18 8 0 5 -6 9 -12 9
-11 0 -235 81 -313 112 -67 28 -317 122 -330 124 -5 2 -35 12 -65 24 -30 12
-91 35 -135 51 l-79 30 38 16 c21 9 41 16 45 16 3 0 18 6 33 14 14 8 43 19 65
26 21 7 52 18 68 26 17 7 95 38 175 69 155 60 165 64 222 89 20 9 41 16 48 16
7 0 24 7 38 15 34 18 213 87 230 88 6 0 12 4 12 9 0 5 4 7 9 3 5 -3 12 -1 15
4 3 5 16 11 29 15 13 3 41 13 63 22 21 10 44 18 49 20 9 2 186 72 245 97 14 6
27 11 30 11 7 2 70 26 95 37 11 5 45 18 75 29 30 12 70 28 89 37 18 8 39 16
45 17 6 1 104 39 218 84 114 45 209 82 212 82 4 0 25 8 49 19 41 18 207 85
217 87 12 2 66 25 82 34 10 6 23 10 30 10 7 0 24 6 38 13 22 11 116 49 130 53
8 1 43 15 65 25 38 16 192 75 207 78 4 1 31 13 60 26 29 14 61 25 71 25 9 0
17 5 17 12 0 6 3 8 6 5 4 -3 16 -1 28 5 11 7 26 13 31 14 25 6 81 30 86 37 3
5 9 8 13 8 11 -2 61 12 66 18 3 3 23 12 45 20 22 7 54 19 70 26 17 7 59 24 95
38 36 14 100 39 142 56 42 17 84 31 92 31 9 0 16 4 16 8 0 5 19 14 43 21 23 7
61 21 84 32 24 10 50 19 58 19 8 0 15 5 15 12 0 6 3 9 6 6 4 -5 63 16 189 67
11 5 22 9 25 10 3 1 14 5 25 10 11 4 43 17 70 28 28 10 61 24 75 30 14 6 27
11 30 11 3 1 82 31 175 67 94 37 179 70 190 74 11 5 23 7 28 7 4 -1 7 2 7 8 0
5 8 10 18 10 10 0 22 3 26 7 3 4 12 8 19 9 7 1 71 26 142 55 72 29 136 52 143
52 6 0 12 4 12 9 0 4 8 8 18 8 10 0 22 3 26 8 4 4 11 7 14 8 4 0 21 6 37 13
17 6 44 16 60 22 17 6 39 15 50 20 103 44 136 58 143 60 11 2 35 10 52 17 8 3
18 4 23 4 4 -1 7 2 7 8 0 6 3 9 8 9 4 -1 10 0 15 1 4 1 10 3 15 5 4 1 21 7 37
14 32 13 196 78 230 91 11 4 25 8 30 9 6 1 20 9 33 17 12 8 22 12 22 10 0 -3
17 2 38 11 74 31 87 36 97 39 6 1 43 16 83 33 39 16 72 27 72 24 0 -3 6 -1 13
4 6 6 45 22 84 37 40 15 75 32 78 37 9 14 -183 202 -280 273 -49 36 -95 70
-100 74 -63 51 -405 208 -495 227 -8 2 -42 11 -75 20 -129 34 -304 64 -411 70
-28 1 -55 4 -60 7 -8 4 -369 3 -369 -1 0 -1 -29 -4 -65 -6 -61 -3 -131 -10
-190 -20 -14 -2 -45 -7 -70 -10 -38 -6 -163 -30 -260 -52 -14 -3 -32 -7 -40
-8 -8 -1 -22 -5 -30 -8 -8 -3 -28 -9 -45 -13 -41 -10 -45 -11 -47 -14 -2 -1
-10 -3 -19 -5 -27 -5 -281 -92 -324 -111 -22 -10 -44 -17 -49 -15 -4 1 -19 -5
-32 -14 -13 -8 -29 -15 -36 -15 -7 0 -26 -7 -42 -15 -16 -9 -37 -17 -45 -19
-9 -2 -29 -9 -46 -15 -71 -30 -191 -73 -202 -74 -7 0 -13 -4 -13 -9 0 -5 -4
-6 -10 -3 -5 3 -10 1 -10 -6 0 -7 -2 -10 -5 -7 -5 5 -192 -61 -260 -91 -24
-11 -88 -35 -95 -37 -3 0 -18 -6 -33 -12 -16 -7 -33 -12 -38 -12 -5 0 -17 -4
-27 -10 -9 -5 -66 -28 -127 -50 -60 -22 -119 -44 -130 -49 -11 -5 -94 -37
-185 -71 -91 -33 -178 -67 -195 -74 -16 -8 -48 -19 -70 -26 -22 -7 -53 -18
-70 -25 -44 -19 -181 -71 -250 -95 -33 -12 -69 -25 -80 -30 -11 -4 -47 -18
-80 -30 -33 -13 -73 -28 -90 -35 -16 -7 -57 -22 -90 -34 -33 -13 -69 -27 -80
-31 -24 -10 -118 -44 -125 -46 -3 0 -18 -6 -35 -13 -16 -7 -145 -56 -285 -108
-140 -53 -274 -104 -298 -115 -23 -10 -47 -16 -52 -13 -6 3 -10 1 -10 -4 0 -6
-9 -11 -20 -11 -11 0 -20 -4 -20 -8 0 -5 -6 -9 -12 -9 -16 -1 -83 -26 -253
-93 -71 -28 -141 -53 -155 -56 -13 -3 -29 -9 -35 -13 -5 -4 -39 -18 -75 -30
-36 -13 -78 -29 -95 -36 -36 -15 -128 -49 -135 -50 -3 0 -11 -4 -17 -8 -7 -5
-21 -10 -30 -12 -17 -4 -140 -50 -481 -182 -78 -30 -159 -59 -180 -65 -20 -6
-39 -13 -42 -17 -3 -3 -36 -17 -75 -30 -38 -13 -83 -29 -100 -36 -16 -7 -73
-29 -125 -49 -52 -19 -108 -41 -125 -47 -16 -7 -32 -13 -35 -13 -3 -1 -21 -7
-40 -15 -19 -7 -44 -16 -55 -21 -11 -4 -45 -17 -75 -28 -30 -12 -68 -27 -85
-33 -16 -7 -32 -13 -35 -14 -3 -1 -20 -6 -37 -10 -18 -4 -33 -11 -33 -16 0 -5
-6 -9 -13 -9 -8 0 -60 -18 -118 -39 -85 -32 -107 -37 -119 -27 -8 7 -46 28
-85 46 -38 19 -73 39 -77 45 -4 5 -8 7 -8 3 0 -4 -21 4 -47 17 -65 32 -242
114 -251 115 -4 1 -23 8 -42 17 -129 54 -442 168 -492 179 -5 1 -10 3 -13 4
-3 1 -9 4 -15 5 -5 1 -12 4 -15 5 -3 1 -8 3 -12 4 -5 2 -26 8 -48 14 -22 6
-43 12 -47 12 -4 0 -26 7 -49 15 -23 9 -51 17 -63 20 -12 2 -57 14 -101 25
-44 11 -109 27 -145 35 -36 8 -72 18 -80 21 -8 3 -26 8 -40 10 -14 2 -65 13
-115 24 -123 26 -193 39 -239 45 -21 3 -42 7 -46 10 -4 3 -25 7 -46 10 -22 3
-48 7 -59 9 -11 2 -40 7 -65 11 -25 4 -54 9 -65 11 -11 3 -36 6 -55 9 -19 3
-46 7 -60 10 -14 2 -41 7 -60 10 -36 6 -66 11 -122 20 -18 3 -46 8 -63 11 -16
2 -54 9 -82 15 -29 6 -57 8 -62 5 -5 -4 -12 -2 -16 3 -3 5 -14 10 -25 10 -11
1 -29 1 -40 2 -11 0 -20 5 -20 10 0 6 -4 8 -9 5 -5 -3 -46 3 -92 15 -223 55
-330 111 -367 192 -17 40 -15 126 6 194 16 50 36 88 119 228 20 34 57 109 58
120 1 6 5 18 8 28 7 17 13 37 16 47 0 3 7 28 15 55 27 95 39 209 39 390 1 185
-9 312 -32 405 -7 25 -14 56 -17 69 -6 31 -42 137 -53 159 -5 9 -26 53 -47 97
-42 86 -130 225 -151 238 -7 4 -13 13 -13 18 0 16 -124 148 -221 234 -73 64
-212 165 -228 165 -5 0 -11 3 -13 8 -6 13 -123 74 -273 142 -61 28 -241 84
-304 95 -19 3 -37 7 -40 9 -3 2 -31 7 -61 11 -30 4 -59 10 -64 13 -9 5 -412
12 -418 7z m292 -559 c14 -2 41 -7 60 -10 69 -11 155 -32 185 -46 11 -5 48
-20 81 -34 83 -34 195 -99 232 -133 7 -7 16 -13 20 -13 6 0 28 -19 122 -104
19 -18 47 -47 61 -66 15 -19 36 -45 48 -57 12 -12 21 -26 21 -32 0 -5 3 -11 8
-13 19 -8 139 -221 148 -263 2 -5 8 -26 15 -45 15 -43 21 -65 18 -65 -1 0 2
-9 8 -20 6 -11 14 -37 17 -59 4 -21 8 -41 10 -45 17 -28 26 -304 13 -396 -4
-27 -8 -57 -8 -65 -2 -32 -48 -188 -74 -250 -34 -81 -91 -184 -110 -200 -8 -7
-15 -16 -15 -20 0 -16 -109 -133 -170 -184 -126 -103 -318 -189 -523 -232 -56
-12 -126 -17 -222 -17 -115 1 -220 7 -220 13 0 1 -9 3 -20 5 -59 10 -131 29
-140 37 -5 4 -17 8 -26 8 -23 0 -172 61 -181 74 -4 6 -8 7 -8 3 0 -4 -21 4
-47 19 -125 71 -153 88 -153 97 0 4 -6 7 -14 7 -8 0 -16 3 -18 8 -1 4 -28 26
-59 50 -71 53 -216 205 -254 264 -5 9 -24 36 -40 59 -17 24 -47 78 -67 119
-36 74 -91 220 -83 220 3 0 1 10 -4 23 -27 70 -34 283 -14 397 35 191 102 371
180 479 38 52 175 201 185 201 3 0 19 12 35 28 17 15 43 34 59 42 16 8 33 21
37 27 4 7 17 13 27 13 11 0 20 4 20 8 0 16 206 102 305 128 95 25 132 32 203
38 18 2 35 5 37 8 6 6 282 1 315 -6z m118 -5721 c37 -4 76 -9 87 -12 11 -2 32
-6 46 -8 32 -5 176 -58 226 -84 21 -10 40 -19 43 -18 10 1 116 -56 170 -91
100 -66 280 -267 280 -312 0 -6 4 -10 8 -10 4 0 13 -12 19 -27 6 -16 25 -61
42 -102 17 -40 33 -83 35 -95 5 -20 10 -41 21 -86 21 -84 29 -166 29 -295 -1
-60 -4 -132 -8 -160 -13 -92 -15 -100 -20 -122 -3 -13 -9 -33 -12 -45 -3 -13
-6 -27 -8 -33 -2 -5 -6 -23 -10 -40 -8 -32 -24 -77 -49 -135 -8 -19 -15 -39
-15 -44 0 -5 -4 -12 -9 -15 -4 -3 -17 -24 -27 -46 -19 -37 -91 -146 -126 -189
-34 -42 -118 -123 -155 -151 -22 -16 -42 -33 -45 -36 -3 -4 -45 -29 -95 -55
-74 -39 -181 -79 -265 -99 -8 -2 -15 -4 -15 -5 0 -2 -8 -4 -70 -19 -108 -26
-194 -35 -335 -35 -98 1 -265 16 -265 24 0 1 -9 3 -20 5 -11 2 -35 7 -52 10
-18 3 -35 6 -38 5 -3 0 -19 7 -35 15 -16 8 -31 15 -32 15 -2 -1 -12 2 -23 5
-238 79 -451 234 -570 415 -59 89 -85 139 -92 174 -2 11 -7 24 -12 30 -12 15
-39 128 -48 201 -16 129 -8 340 16 423 5 18 9 35 9 38 -3 35 143 364 171 384
4 3 21 26 39 51 104 153 293 318 482 422 63 34 178 85 209 93 9 2 48 13 86 24
39 11 76 18 83 15 6 -2 12 -1 12 4 0 4 6 8 13 8 32 2 131 13 133 16 5 4 119 0
192 -8z"/>
</g>
</svg>
